<svg id="visual" viewBox="0 0 960 150" width="960" height="150" xmlns="http://www.w3.org/2000/svg" xmlns:xlink="http://www.w3.org/1999/xlink" version="1.1"><path d="M0 47L22.8 51C45.7 55 91.3 63 137 62.7C182.7 62.3 228.3 53.7 274 46.2C319.7 38.7 365.3 32.3 411.2 35.8C457 39.3 503 52.7 548.8 57.5C594.7 62.3 640.3 58.7 686 51.8C731.7 45 777.3 35 823 33.7C868.7 32.3 914.3 39.7 937.2 43.3L960 47L960 151L937.2 151C914.3 151 868.7 151 823 151C777.3 151 731.7 151 686 151C640.3 151 594.7 151 548.8 151C503 151 457 151 411.2 151C365.3 151 319.7 151 274 151C228.3 151 182.7 151 137 151C91.3 151 45.7 151 22.8 151L0 151Z" fill="#141414"></path><path d="M0 61L22.8 60.2C45.7 59.3 91.3 57.7 137 61C182.7 64.3 228.3 72.7 274 74.7C319.7 76.7 365.3 72.3 411.2 68.5C457 64.7 503 61.3 548.8 62.8C594.7 64.3 640.3 70.7 686 70.7C731.7 70.7 777.3 64.3 823 62.3C868.7 60.3 914.3 62.7 937.2 63.8L960 65L960 151L937.2 151C914.3 151 868.7 151 823 151C777.3 151 731.7 151 686 151C640.3 151 594.7 151 548.8 151C503 151 457 151 411.2 151C365.3 151 319.7 151 274 151C228.3 151 182.7 151 137 151C91.3 151 45.7 151 22.8 151L0 151Z" fill="#292b2d"></path><path d="M0 102L22.8 98.2C45.7 94.3 91.3 86.7 137 81.8C182.7 77 228.3 75 274 74.8C319.7 74.7 365.3 76.3 411.2 80.8C457 85.3 503 92.7 548.8 94.7C594.7 96.7 640.3 93.3 686 89.5C731.7 85.7 777.3 81.3 823 78C868.7 74.7 914.3 72.3 937.2 71.2L960 70L960 151L937.2 151C914.3 151 868.7 151 823 151C777.3 151 731.7 151 686 151C640.3 151 594.7 151 548.8 151C503 151 457 151 411.2 151C365.3 151 319.7 151 274 151C228.3 151 182.7 151 137 151C91.3 151 45.7 151 22.8 151L0 151Z" fill="#404348"></path><path d="M0 98L22.8 101.2C45.7 104.3 91.3 110.7 137 113.8C182.7 117 228.3 117 274 116.5C319.7 116 365.3 115 411.2 113.2C457 111.3 503 108.7 548.8 109.5C594.7 110.3 640.3 114.7 686 113.3C731.7 112 777.3 105 823 105C868.7 105 914.3 112 937.2 115.5L960 119L960 151L937.2 151C914.3 151 868.7 151 823 151C777.3 151 731.7 151 686 151C640.3 151 594.7 151 548.8 151C503 151 457 151 411.2 151C365.3 151 319.7 151 274 151C228.3 151 182.7 151 137 151C91.3 151 45.7 151 22.8 151L0 151Z" fill="#585d65"></path><path d="M0 127L22.8 127.7C45.7 128.3 91.3 129.7 137 130.2C182.7 130.7 228.3 130.3 274 129C319.7 127.7 365.3 125.3 411.2 125.5C457 125.7 503 128.3 548.8 129.3C594.7 130.3 640.3 129.7 686 129.5C731.7 129.3 777.3 129.7 823 130.5C868.7 131.3 914.3 132.7 937.2 133.3L960 134L960 151L937.2 151C914.3 151 868.7 151 823 151C777.3 151 731.7 151 686 151C640.3 151 594.7 151 548.8 151C503 151 457 151 411.2 151C365.3 151 319.7 151 274 151C228.3 151 182.7 151 137 151C91.3 151 45.7 151 22.8 151L0 151Z" fill="#717983"></path></svg>