<svg id="visual" viewBox="0 0 900 600" width="900" height="600" xmlns="http://www.w3.org/2000/svg" xmlns:xlink="http://www.w3.org/1999/xlink" version="1.1"><path d="M0 478L21.5 474.3C43 470.7 86 463.3 128.8 462.3C171.7 461.3 214.3 466.7 257.2 460.7C300 454.7 343 437.3 385.8 433.7C428.7 430 471.3 440 514.2 443.5C557 447 600 444 642.8 438.2C685.7 432.3 728.3 423.7 771.2 422.8C814 422 857 429 878.5 432.5L900 436L900 601L878.5 601C857 601 814 601 771.2 601C728.3 601 685.7 601 642.8 601C600 601 557 601 514.2 601C471.3 601 428.7 601 385.8 601C343 601 300 601 257.2 601C214.3 601 171.7 601 128.8 601C86 601 43 601 21.5 601L0 601Z" fill="#0077b6"></path><path d="M0 444L21.5 449.5C43 455 86 466 128.8 476.5C171.7 487 214.3 497 257.2 495.2C300 493.3 343 479.7 385.8 472C428.7 464.3 471.3 462.7 514.2 468.3C557 474 600 487 642.8 487.2C685.7 487.3 728.3 474.7 771.2 469.8C814 465 857 468 878.5 469.5L900 471L900 601L878.5 601C857 601 814 601 771.2 601C728.3 601 685.7 601 642.8 601C600 601 557 601 514.2 601C471.3 601 428.7 601 385.8 601C343 601 300 601 257.2 601C214.3 601 171.7 601 128.8 601C86 601 43 601 21.5 601L0 601Z" fill="#319acb"></path><path d="M0 533L21.5 527.3C43 521.7 86 510.3 128.8 511C171.7 511.7 214.3 524.3 257.2 522.3C300 520.3 343 503.7 385.8 500C428.7 496.3 471.3 505.7 514.2 507.5C557 509.3 600 503.7 642.8 508.3C685.7 513 728.3 528 771.2 533.5C814 539 857 535 878.5 533L900 531L900 601L878.5 601C857 601 814 601 771.2 601C728.3 601 685.7 601 642.8 601C600 601 557 601 514.2 601C471.3 601 428.7 601 385.8 601C343 601 300 601 257.2 601C214.3 601 171.7 601 128.8 601C86 601 43 601 21.5 601L0 601Z" fill="#5fbddd"></path><path d="M0 527L21.5 528.5C43 530 86 533 128.8 540.7C171.7 548.3 214.3 560.7 257.2 567.2C300 573.7 343 574.3 385.8 568C428.7 561.7 471.3 548.3 514.2 541C557 533.7 600 532.3 642.8 537.7C685.7 543 728.3 555 771.2 557.8C814 560.7 857 554.3 878.5 551.2L900 548L900 601L878.5 601C857 601 814 601 771.2 601C728.3 601 685.7 601 642.8 601C600 601 557 601 514.2 601C471.3 601 428.7 601 385.8 601C343 601 300 601 257.2 601C214.3 601 171.7 601 128.8 601C86 601 43 601 21.5 601L0 601Z" fill="#90e0ef"></path></svg>