<svg id="visual" viewBox="0 0 900 600" width="900" height="600" xmlns="http://www.w3.org/2000/svg" xmlns:xlink="http://www.w3.org/1999/xlink" version="1.1"><rect x="0" y="0" width="900" height="600" fill="#141414"></rect><path d="M0 120L21.5 123.7C43 127.3 86 134.7 128.8 135.7C171.7 136.7 214.3 131.3 257.2 137.3C300 143.3 343 160.7 385.8 164.3C428.7 168 471.3 158 514.2 154.5C557 151 600 154 642.8 159.8C685.7 165.7 728.3 174.3 771.2 175.2C814 176 857 169 878.5 165.5L900 162L900 0L878.5 0C857 0 814 0 771.2 0C728.3 0 685.7 0 642.8 0C600 0 557 0 514.2 0C471.3 0 428.7 0 385.8 0C343 0 300 0 257.2 0C214.3 0 171.7 0 128.8 0C86 0 43 0 21.5 0L0 0Z" fill="#0077b6"></path><path d="M0 154L21.5 148.5C43 143 86 132 128.8 121.5C171.7 111 214.3 101 257.2 102.8C300 104.7 343 118.3 385.8 126C428.7 133.7 471.3 135.3 514.2 129.7C557 124 600 111 642.8 110.8C685.7 110.7 728.3 123.3 771.2 128.2C814 133 857 130 878.5 128.5L900 127L900 0L878.5 0C857 0 814 0 771.2 0C728.3 0 685.7 0 642.8 0C600 0 557 0 514.2 0C471.3 0 428.7 0 385.8 0C343 0 300 0 257.2 0C214.3 0 171.7 0 128.8 0C86 0 43 0 21.5 0L0 0Z" fill="#319acb"></path><path d="M0 65L21.5 70.7C43 76.3 86 87.7 128.8 87C171.7 86.3 214.3 73.7 257.2 75.7C300 77.7 343 94.3 385.8 98C428.7 101.7 471.3 92.3 514.2 90.5C557 88.7 600 94.3 642.8 89.7C685.7 85 728.3 70 771.2 64.5C814 59 857 63 878.5 65L900 67L900 0L878.5 0C857 0 814 0 771.2 0C728.3 0 685.7 0 642.8 0C600 0 557 0 514.2 0C471.3 0 428.7 0 385.8 0C343 0 300 0 257.2 0C214.3 0 171.7 0 128.8 0C86 0 43 0 21.5 0L0 0Z" fill="#5fbddd"></path><path d="M0 71L21.5 69.5C43 68 86 65 128.8 57.3C171.7 49.7 214.3 37.3 257.2 30.8C300 24.3 343 23.7 385.8 30C428.7 36.3 471.3 49.7 514.2 57C557 64.3 600 65.7 642.8 60.3C685.7 55 728.3 43 771.2 40.2C814 37.3 857 43.7 878.5 46.8L900 50L900 0L878.5 0C857 0 814 0 771.2 0C728.3 0 685.7 0 642.8 0C600 0 557 0 514.2 0C471.3 0 428.7 0 385.8 0C343 0 300 0 257.2 0C214.3 0 171.7 0 128.8 0C86 0 43 0 21.5 0L0 0Z" fill="#90e0ef"></path></svg>