<svg id="visual" viewBox="0 0 960 150" width="960" height="150" xmlns="http://www.w3.org/2000/svg" xmlns:xlink="http://www.w3.org/1999/xlink" version="1.1"><path d="M0 101L22.8 97C45.7 93 91.3 85 137 85.3C182.7 85.7 228.3 94.3 274 101.8C319.7 109.3 365.3 115.7 411.2 112.2C457 108.7 503 95.3 548.8 90.5C594.7 85.7 640.3 89.3 686 96.2C731.7 103 777.3 113 823 114.3C868.7 115.7 914.3 108.3 937.2 104.7L960 101L960 0L937.2 0C914.3 0 868.7 0 823 0C777.3 0 731.7 0 686 0C640.3 0 594.7 0 548.8 0C503 0 457 0 411.2 0C365.3 0 319.7 0 274 0C228.3 0 182.7 0 137 0C91.3 0 45.7 0 22.8 0L0 0Z" fill="#141414"></path><path d="M0 87L22.8 87.8C45.7 88.7 91.3 90.3 137 87C182.7 83.7 228.3 75.3 274 73.3C319.7 71.3 365.3 75.7 411.2 79.5C457 83.3 503 86.7 548.8 85.2C594.7 83.7 640.3 77.3 686 77.3C731.7 77.3 777.3 83.7 823 85.7C868.7 87.7 914.3 85.3 937.2 84.2L960 83L960 0L937.2 0C914.3 0 868.7 0 823 0C777.3 0 731.7 0 686 0C640.3 0 594.7 0 548.8 0C503 0 457 0 411.2 0C365.3 0 319.7 0 274 0C228.3 0 182.7 0 137 0C91.3 0 45.7 0 22.8 0L0 0Z" fill="#292b2d"></path><path d="M0 46L22.8 49.8C45.7 53.7 91.3 61.3 137 66.2C182.7 71 228.3 73 274 73.2C319.7 73.3 365.3 71.7 411.2 67.2C457 62.7 503 55.3 548.8 53.3C594.7 51.3 640.3 54.7 686 58.5C731.7 62.3 777.3 66.7 823 70C868.7 73.3 914.3 75.7 937.2 76.8L960 78L960 0L937.2 0C914.3 0 868.7 0 823 0C777.3 0 731.7 0 686 0C640.3 0 594.7 0 548.8 0C503 0 457 0 411.2 0C365.3 0 319.7 0 274 0C228.3 0 182.7 0 137 0C91.3 0 45.7 0 22.8 0L0 0Z" fill="#404348"></path><path d="M0 50L22.8 46.8C45.7 43.7 91.3 37.3 137 34.2C182.7 31 228.3 31 274 31.5C319.7 32 365.3 33 411.2 34.8C457 36.7 503 39.3 548.8 38.5C594.7 37.7 640.3 33.3 686 34.7C731.7 36 777.3 43 823 43C868.7 43 914.3 36 937.2 32.5L960 29L960 0L937.2 0C914.3 0 868.7 0 823 0C777.3 0 731.7 0 686 0C640.3 0 594.7 0 548.8 0C503 0 457 0 411.2 0C365.3 0 319.7 0 274 0C228.3 0 182.7 0 137 0C91.3 0 45.7 0 22.8 0L0 0Z" fill="#585d65"></path><path d="M0 21L22.8 20.3C45.7 19.7 91.3 18.3 137 17.8C182.7 17.3 228.3 17.7 274 19C319.7 20.3 365.3 22.7 411.2 22.5C457 22.3 503 19.7 548.8 18.7C594.7 17.7 640.3 18.3 686 18.5C731.7 18.7 777.3 18.3 823 17.5C868.7 16.7 914.3 15.3 937.2 14.7L960 14L960 0L937.2 0C914.3 0 868.7 0 823 0C777.3 0 731.7 0 686 0C640.3 0 594.7 0 548.8 0C503 0 457 0 411.2 0C365.3 0 319.7 0 274 0C228.3 0 182.7 0 137 0C91.3 0 45.7 0 22.8 0L0 0Z" fill="#717983"></path></svg>